<?xml version="1.0" encoding="utf-8"?>
<!-- Generator: Adobe Illustrator 25.2.3, SVG Export Plug-In . SVG Version: 6.00 Build 0)  -->
<svg version="1.1" id="Capa_1" xmlns="http://www.w3.org/2000/svg" xmlns:xlink="http://www.w3.org/1999/xlink" x="0px" y="0px"
	 viewBox="0 0 880.94 81.89" style="enable-background:new 0 0 880.94 81.89;" xml:space="preserve">
<g>
	<path d="M17.63,69.13V19.57h11.83l20.93,28.35V19.57h12.67v49.56H51.58L30.3,41.2v27.93H17.63z"/>
	<path d="M71.11,69.13V19.57h12.67v49.56H71.11z"/>
	<path d="M111.08,69.69c-3.64,0-7.01-0.61-10.12-1.82c-3.1-1.21-5.65-3.1-7.63-5.67c-1.98-2.57-3.19-5.83-3.61-9.8h12.74
		c0.33,1.31,0.93,2.37,1.82,3.19c0.89,0.82,1.99,1.41,3.32,1.79c1.33,0.37,2.77,0.56,4.31,0.56c0.93,0,1.89-0.09,2.87-0.28
		c0.98-0.19,1.81-0.54,2.48-1.05c0.68-0.51,1.02-1.26,1.02-2.24c0-0.7-0.2-1.27-0.6-1.71c-0.4-0.44-0.96-0.82-1.68-1.12
		c-0.72-0.3-1.62-0.57-2.7-0.81c-0.42-0.09-0.85-0.19-1.29-0.28c-0.44-0.09-0.88-0.19-1.29-0.28c-0.42-0.09-0.86-0.19-1.33-0.28
		c-2.38-0.51-4.67-1.11-6.86-1.79c-2.19-0.68-4.13-1.57-5.81-2.69s-3.01-2.61-3.99-4.48c-0.98-1.87-1.47-4.22-1.47-7.07
		c0-2.61,0.47-4.82,1.4-6.62c0.93-1.8,2.17-3.24,3.71-4.34c1.54-1.1,3.22-1.93,5.04-2.49c1.82-0.56,3.62-0.94,5.39-1.15
		c1.77-0.21,3.36-0.31,4.76-0.31c3.45,0,6.49,0.64,9.1,1.92c2.61,1.28,4.72,3.16,6.33,5.64c1.61,2.47,2.58,5.46,2.9,8.96h-12.25
		c-0.14-1.03-0.56-1.9-1.26-2.62c-0.7-0.72-1.6-1.28-2.69-1.68c-1.1-0.4-2.37-0.59-3.82-0.59c-0.84,0-1.63,0.07-2.38,0.21
		c-0.75,0.14-1.39,0.35-1.92,0.63c-0.54,0.28-0.97,0.63-1.29,1.05c-0.33,0.42-0.49,0.91-0.49,1.47c0,0.75,0.29,1.38,0.88,1.89
		c0.58,0.51,1.45,0.96,2.59,1.33c1.14,0.37,2.55,0.77,4.24,1.19c0.79,0.19,1.56,0.36,2.31,0.52c0.75,0.16,1.49,0.34,2.24,0.52
		c2.05,0.47,3.98,1,5.77,1.61c1.8,0.61,3.38,1.4,4.76,2.38c1.38,0.98,2.46,2.3,3.25,3.95c0.79,1.66,1.19,3.77,1.19,6.33
		c0,2.94-0.56,5.43-1.68,7.46c-1.12,2.03-2.64,3.68-4.55,4.94c-1.91,1.26-4.06,2.18-6.44,2.77S113.55,69.69,111.08,69.69z"/>
	<path d="M157.34,69.69c-3.64,0-7.01-0.61-10.12-1.82c-3.1-1.21-5.65-3.1-7.63-5.67c-1.98-2.57-3.19-5.83-3.61-9.8h12.74
		c0.33,1.31,0.93,2.37,1.82,3.19c0.89,0.82,1.99,1.41,3.32,1.79c1.33,0.37,2.77,0.56,4.31,0.56c0.93,0,1.89-0.09,2.87-0.28
		c0.98-0.19,1.81-0.54,2.48-1.05c0.68-0.51,1.02-1.26,1.02-2.24c0-0.7-0.2-1.27-0.6-1.71c-0.4-0.44-0.96-0.82-1.68-1.12
		c-0.72-0.3-1.62-0.57-2.7-0.81c-0.42-0.09-0.85-0.19-1.29-0.28c-0.44-0.09-0.88-0.19-1.29-0.28c-0.42-0.09-0.86-0.19-1.33-0.28
		c-2.38-0.51-4.67-1.11-6.86-1.79c-2.19-0.68-4.13-1.57-5.81-2.69s-3.01-2.61-3.99-4.48c-0.98-1.87-1.47-4.22-1.47-7.07
		c0-2.61,0.47-4.82,1.4-6.62c0.93-1.8,2.17-3.24,3.71-4.34c1.54-1.1,3.22-1.93,5.04-2.49c1.82-0.56,3.62-0.94,5.39-1.15
		c1.77-0.21,3.36-0.31,4.76-0.31c3.45,0,6.49,0.64,9.1,1.92c2.61,1.28,4.72,3.16,6.33,5.64c1.61,2.47,2.58,5.46,2.9,8.96h-12.25
		c-0.14-1.03-0.56-1.9-1.26-2.62c-0.7-0.72-1.6-1.28-2.69-1.68c-1.1-0.4-2.37-0.59-3.82-0.59c-0.84,0-1.63,0.07-2.38,0.21
		c-0.75,0.14-1.39,0.35-1.92,0.63c-0.54,0.28-0.97,0.63-1.29,1.05c-0.33,0.42-0.49,0.91-0.49,1.47c0,0.75,0.29,1.38,0.88,1.89
		c0.58,0.51,1.45,0.96,2.59,1.33c1.14,0.37,2.55,0.77,4.24,1.19c0.79,0.19,1.56,0.36,2.31,0.52c0.75,0.16,1.49,0.34,2.24,0.52
		c2.05,0.47,3.98,1,5.77,1.61c1.8,0.61,3.38,1.4,4.76,2.38c1.38,0.98,2.46,2.3,3.25,3.95c0.79,1.66,1.19,3.77,1.19,6.33
		c0,2.94-0.56,5.43-1.68,7.46c-1.12,2.03-2.64,3.68-4.55,4.94c-1.91,1.26-4.06,2.18-6.44,2.77S159.82,69.69,157.34,69.69z"/>
	<path d="M183.31,69.13V19.57h12.67v49.56H183.31z"/>
	<path d="M244.91,69.69c-5.13,0-9.54-1.02-13.23-3.04c-3.69-2.03-6.51-4.92-8.47-8.68c-1.96-3.76-2.94-8.2-2.94-13.33
		c0-5.27,1.01-9.83,3.04-13.69s4.88-6.81,8.54-8.89c3.66-2.08,7.95-3.11,12.84-3.11c3.87,0,7.41,0.7,10.61,2.1
		c3.2,1.4,5.8,3.5,7.8,6.3c2.01,2.8,3.2,6.35,3.57,10.64h-11.97c-0.56-2.24-1.61-3.98-3.15-5.22c-1.54-1.24-3.69-1.85-6.44-1.85
		c-2.94,0-5.27,0.65-7,1.96c-1.73,1.31-2.95,2.96-3.67,4.97c-0.72,2.01-1.08,4.08-1.08,6.23c0,2.15,0.38,4.27,1.16,6.37
		c0.77,2.1,2.03,3.84,3.78,5.21c1.75,1.38,4.09,2.06,7.03,2.06c1.77,0,3.31-0.27,4.62-0.8c1.31-0.54,2.39-1.33,3.25-2.38
		c0.86-1.05,1.46-2.32,1.79-3.81h12.25c-0.28,4.2-1.49,7.71-3.64,10.54c-2.15,2.82-4.87,4.94-8.16,6.33S248.65,69.69,244.91,69.69z"
		/>
	<path d="M270.74,69.13V19.57h12.39v49.56H270.74z"/>
	<path d="M305.88,69.69c-3.78,0-7.08-0.76-9.9-2.27c-2.82-1.52-5.02-3.68-6.58-6.48c-1.56-2.8-2.35-6.14-2.35-10.01
		c0-3.87,0.79-7.27,2.38-10.18c1.59-2.92,3.8-5.19,6.65-6.83c2.85-1.63,6.16-2.45,9.94-2.45c2.71,0,5.13,0.42,7.28,1.26
		c2.15,0.84,3.99,2.05,5.53,3.64c1.54,1.59,2.72,3.5,3.54,5.74c0.82,2.24,1.22,4.76,1.22,7.56c0,0.79-0.04,1.55-0.1,2.27
		c-0.07,0.72-0.2,1.48-0.38,2.27h-23.8c0.09,0.89,0.39,1.73,0.88,2.52c0.49,0.79,1.18,1.42,2.07,1.89c0.89,0.47,2.01,0.7,3.36,0.7
		c1.12,0,2.09-0.13,2.9-0.39c0.82-0.26,1.48-0.59,2-1.02c0.51-0.42,0.84-0.84,0.98-1.26h12.11c-0.65,3.03-1.85,5.52-3.6,7.46
		c-1.75,1.94-3.85,3.35-6.3,4.23C311.24,69.24,308.63,69.69,305.88,69.69z M299.51,46.17h12.46c0-0.7-0.2-1.44-0.59-2.21
		s-1.05-1.41-1.96-1.92c-0.91-0.51-2.11-0.77-3.6-0.77c-1.45,0-2.64,0.26-3.57,0.77c-0.93,0.51-1.62,1.15-2.07,1.92
		S299.51,45.47,299.51,46.17z"/>
	<path d="M339.06,69.69c-1.73,0-3.36-0.23-4.9-0.7c-1.54-0.47-2.9-1.17-4.09-2.1c-1.19-0.93-2.13-2.1-2.83-3.5
		c-0.7-1.4-1.05-3.06-1.05-4.97c0-2.8,0.59-4.99,1.79-6.58c1.19-1.59,2.8-2.75,4.83-3.5c2.03-0.75,4.34-1.23,6.93-1.44
		s5.29-0.31,8.08-0.31h1.68c0-0.89-0.21-1.68-0.63-2.38c-0.42-0.7-1.01-1.26-1.79-1.68c-0.77-0.42-1.71-0.63-2.83-0.63
		c-0.79,0-1.56,0.12-2.31,0.35c-0.75,0.23-1.37,0.55-1.86,0.94c-0.49,0.4-0.78,0.88-0.88,1.44h-12.32c0.28-2.29,0.96-4.26,2.03-5.92
		c1.07-1.66,2.43-3.01,4.06-4.06c1.63-1.05,3.46-1.83,5.5-2.34c2.03-0.51,4.14-0.77,6.33-0.77c5.41,0,9.51,1.5,12.28,4.51
		c2.78,3.01,4.17,7.43,4.17,13.27v19.81h-11.41V64.3c-1.21,1.82-2.58,3.1-4.1,3.85c-1.52,0.75-2.89,1.19-4.13,1.33
		C340.38,69.62,339.53,69.69,339.06,69.69z M342.42,60.24c1.17,0,2.3-0.29,3.4-0.88c1.1-0.58,2.01-1.32,2.73-2.21
		c0.72-0.89,1.09-1.77,1.09-2.66v-0.28h-6.93c-0.56,0-1.1,0.06-1.61,0.18c-0.51,0.12-0.97,0.29-1.37,0.52
		c-0.4,0.23-0.71,0.54-0.95,0.91c-0.23,0.37-0.35,0.84-0.35,1.4c0,0.65,0.17,1.2,0.52,1.65c0.35,0.44,0.83,0.78,1.44,1.01
		C341,60.12,341.67,60.24,342.42,60.24z"/>
	<path d="M366.43,69.13V32.24h11.41l0.7,3.36c1.17-1.21,2.42-2.11,3.74-2.7c1.33-0.58,2.62-0.97,3.89-1.15
		c1.26-0.19,2.33-0.28,3.22-0.28c3.45,0,6.17,0.79,8.16,2.38c1.98,1.59,3.39,3.69,4.23,6.3c0.84,2.61,1.26,5.48,1.26,8.61v20.37
		h-12.39V49.81c0-0.75-0.08-1.53-0.25-2.35c-0.16-0.82-0.44-1.58-0.84-2.27c-0.4-0.7-0.94-1.27-1.64-1.71
		c-0.7-0.44-1.61-0.67-2.73-0.67c-1.45,0-2.65,0.33-3.6,0.98c-0.96,0.65-1.66,1.53-2.1,2.62c-0.44,1.1-0.67,2.32-0.67,3.67v19.04
		H366.43z"/>
	<path d="M447.7,69.69c-3.64,0-7.01-0.61-10.12-1.82c-3.1-1.21-5.65-3.1-7.63-5.67c-1.98-2.57-3.19-5.83-3.61-9.8h12.74
		c0.33,1.31,0.93,2.37,1.82,3.19c0.89,0.82,1.99,1.41,3.32,1.79c1.33,0.37,2.77,0.56,4.31,0.56c0.93,0,1.89-0.09,2.87-0.28
		c0.98-0.19,1.81-0.54,2.48-1.05c0.68-0.51,1.02-1.26,1.02-2.24c0-0.7-0.2-1.27-0.6-1.71c-0.4-0.44-0.96-0.82-1.68-1.12
		c-0.72-0.3-1.62-0.57-2.7-0.81c-0.42-0.09-0.85-0.19-1.29-0.28c-0.44-0.09-0.88-0.19-1.29-0.28c-0.42-0.09-0.86-0.19-1.33-0.28
		c-2.38-0.51-4.67-1.11-6.86-1.79c-2.19-0.68-4.13-1.57-5.81-2.69s-3.01-2.61-3.99-4.48c-0.98-1.87-1.47-4.22-1.47-7.07
		c0-2.61,0.47-4.82,1.4-6.62c0.93-1.8,2.17-3.24,3.71-4.34c1.54-1.1,3.22-1.93,5.04-2.49c1.82-0.56,3.62-0.94,5.39-1.15
		c1.77-0.21,3.36-0.31,4.76-0.31c3.45,0,6.49,0.64,9.1,1.92c2.61,1.28,4.72,3.16,6.33,5.64c1.61,2.47,2.58,5.46,2.9,8.96h-12.25
		c-0.14-1.03-0.56-1.9-1.26-2.62c-0.7-0.72-1.6-1.28-2.69-1.68c-1.1-0.4-2.37-0.59-3.82-0.59c-0.84,0-1.63,0.07-2.38,0.21
		c-0.75,0.14-1.39,0.35-1.92,0.63c-0.54,0.28-0.97,0.63-1.29,1.05c-0.33,0.42-0.49,0.91-0.49,1.47c0,0.75,0.29,1.38,0.88,1.89
		c0.58,0.51,1.45,0.96,2.59,1.33c1.14,0.37,2.55,0.77,4.24,1.19c0.79,0.19,1.56,0.36,2.31,0.52c0.75,0.16,1.49,0.34,2.24,0.52
		c2.05,0.47,3.98,1,5.77,1.61c1.8,0.61,3.38,1.4,4.76,2.38c1.38,0.98,2.46,2.3,3.25,3.95c0.79,1.66,1.19,3.77,1.19,6.33
		c0,2.94-0.56,5.43-1.68,7.46c-1.12,2.03-2.64,3.68-4.55,4.94c-1.91,1.26-4.06,2.18-6.44,2.77S450.17,69.69,447.7,69.69z"/>
	<path d="M489.7,69.69c-3.78,0-7.08-0.76-9.9-2.27c-2.82-1.52-5.02-3.68-6.58-6.48c-1.56-2.8-2.35-6.14-2.35-10.01
		c0-3.87,0.79-7.27,2.38-10.18c1.59-2.92,3.8-5.19,6.65-6.83c2.85-1.63,6.16-2.45,9.94-2.45c2.71,0,5.13,0.42,7.28,1.26
		c2.15,0.84,3.99,2.05,5.53,3.64c1.54,1.59,2.72,3.5,3.54,5.74c0.82,2.24,1.22,4.76,1.22,7.56c0,0.79-0.04,1.55-0.1,2.27
		c-0.07,0.72-0.2,1.48-0.38,2.27h-23.8c0.09,0.89,0.39,1.73,0.88,2.52c0.49,0.79,1.18,1.42,2.07,1.89c0.89,0.47,2.01,0.7,3.36,0.7
		c1.12,0,2.09-0.13,2.9-0.39c0.82-0.26,1.48-0.59,2-1.02c0.51-0.42,0.84-0.84,0.98-1.26h12.11c-0.65,3.03-1.85,5.52-3.6,7.46
		c-1.75,1.94-3.85,3.35-6.3,4.23C495.05,69.24,492.45,69.69,489.7,69.69z M483.33,46.17h12.46c0-0.7-0.2-1.44-0.59-2.21
		s-1.05-1.41-1.96-1.92c-0.91-0.51-2.11-0.77-3.6-0.77c-1.45,0-2.64,0.26-3.57,0.77c-0.93,0.51-1.62,1.15-2.07,1.92
		S483.33,45.47,483.33,46.17z"/>
	<path d="M511.26,69.13V32.24h10.85l0.84,3.5c0.93-1.35,1.96-2.33,3.08-2.94c1.12-0.61,2.24-0.98,3.36-1.12
		c1.12-0.14,2.15-0.21,3.08-0.21c0.79,0,1.52,0.01,2.17,0.04c0.65,0.02,1.07,0.06,1.26,0.1v11.97h-2.38c-1.73,0-3.35,0.22-4.87,0.67
		c-1.52,0.44-2.73,1.28-3.64,2.52c-0.91,1.24-1.37,3.09-1.37,5.57v16.8H511.26z"/>
	<path d="M546.82,69.13l-12.11-36.89h13.44l6.93,27.37l7-27.37h13.37l-12.11,36.89H546.82z"/>
	<path d="M583.29,29.72c-2.24,0-4.05-0.67-5.42-1.99c-1.38-1.33-2.06-3.07-2.06-5.22c0-2.19,0.72-3.99,2.17-5.39
		c1.45-1.4,3.24-2.1,5.39-2.1c2.05,0,3.8,0.67,5.25,1.99c1.45,1.33,2.17,3.14,2.17,5.43c0,2.19-0.69,3.96-2.06,5.29
		C587.33,29.05,585.53,29.72,583.29,29.72z M577.06,69.13V32.24h12.39v36.89H577.06z"/>
	<path d="M611.77,69.69c-3.73,0-6.98-0.75-9.73-2.24c-2.75-1.49-4.89-3.65-6.41-6.47c-1.52-2.82-2.28-6.22-2.28-10.19
		c0-4.11,0.78-7.6,2.35-10.47c1.56-2.87,3.75-5.06,6.54-6.58c2.8-1.52,6.04-2.28,9.73-2.28c3.31,0,6.25,0.61,8.82,1.82
		c2.57,1.21,4.6,2.96,6.09,5.25c1.49,2.29,2.29,5.09,2.38,8.4h-11.9c-0.28-1.35-0.9-2.38-1.86-3.08c-0.96-0.7-2.11-1.05-3.46-1.05
		c-1.68,0-2.99,0.43-3.92,1.29c-0.93,0.86-1.59,1.91-1.96,3.15c-0.37,1.24-0.56,2.42-0.56,3.54c0,1.26,0.21,2.47,0.63,3.64
		c0.42,1.17,1.1,2.12,2.03,2.87c0.93,0.75,2.17,1.12,3.71,1.12c1.49,0,2.71-0.36,3.64-1.08c0.93-0.72,1.52-1.71,1.75-2.98h12.32
		c-0.09,3.36-0.96,6.17-2.59,8.44c-1.63,2.26-3.78,3.98-6.44,5.15C618,69.1,615.04,69.69,611.77,69.69z"/>
	<path d="M650.62,69.69c-3.78,0-7.08-0.76-9.9-2.27c-2.82-1.52-5.02-3.68-6.58-6.48c-1.56-2.8-2.35-6.14-2.35-10.01
		c0-3.87,0.79-7.27,2.38-10.18c1.59-2.92,3.8-5.19,6.65-6.83c2.85-1.63,6.16-2.45,9.94-2.45c2.71,0,5.13,0.42,7.28,1.26
		c2.15,0.84,3.99,2.05,5.53,3.64c1.54,1.59,2.72,3.5,3.54,5.74c0.82,2.24,1.22,4.76,1.22,7.56c0,0.79-0.04,1.55-0.1,2.27
		c-0.07,0.72-0.2,1.48-0.38,2.27h-23.8c0.09,0.89,0.39,1.73,0.88,2.52c0.49,0.79,1.18,1.42,2.07,1.89c0.89,0.47,2.01,0.7,3.36,0.7
		c1.12,0,2.09-0.13,2.9-0.39c0.82-0.26,1.48-0.59,2-1.02c0.51-0.42,0.84-0.84,0.98-1.26h12.11c-0.65,3.03-1.85,5.52-3.6,7.46
		c-1.75,1.94-3.85,3.35-6.3,4.23C655.98,69.24,653.38,69.69,650.62,69.69z M644.25,46.17h12.46c0-0.7-0.2-1.44-0.59-2.21
		s-1.05-1.41-1.96-1.92c-0.91-0.51-2.11-0.77-3.6-0.77c-1.45,0-2.64,0.26-3.57,0.77c-0.93,0.51-1.62,1.15-2.07,1.92
		S644.25,45.47,644.25,46.17z"/>
	<path d="M687.3,69.69c-1.82,0-3.66-0.21-5.53-0.63c-1.87-0.42-3.6-1.12-5.21-2.1s-2.97-2.32-4.09-4.02
		c-1.12-1.7-1.87-3.84-2.24-6.41h12.53c0.19,0.61,0.52,1.14,1.01,1.61c0.49,0.47,1.1,0.83,1.82,1.09c0.72,0.26,1.5,0.38,2.34,0.38
		c0.56,0,1.06-0.05,1.5-0.14c0.44-0.09,0.83-0.24,1.16-0.46c0.33-0.21,0.57-0.45,0.73-0.73c0.16-0.28,0.25-0.58,0.25-0.91
		c0-0.65-0.26-1.13-0.77-1.44c-0.51-0.3-1.21-0.54-2.1-0.7c-0.89-0.16-1.89-0.36-3.01-0.6c-1.73-0.37-3.58-0.85-5.56-1.43
		c-1.98-0.58-3.65-1.32-5-2.21c-0.7-0.47-1.3-0.99-1.79-1.58c-0.49-0.58-0.89-1.23-1.19-1.92c-0.3-0.7-0.52-1.42-0.67-2.17
		c-0.14-0.75-0.21-1.54-0.21-2.38c0-2.15,0.48-3.95,1.44-5.42c0.96-1.47,2.19-2.65,3.71-3.54c1.52-0.89,3.2-1.53,5.04-1.92
		c1.84-0.4,3.65-0.6,5.42-0.6c2.61,0,5.05,0.42,7.31,1.26c2.26,0.84,4.15,2.19,5.67,4.06c1.52,1.87,2.46,4.34,2.83,7.42h-11.97
		c-0.09-0.84-0.55-1.49-1.37-1.96c-0.82-0.47-1.81-0.7-2.97-0.7c-0.47,0-0.9,0.05-1.29,0.14c-0.4,0.09-0.75,0.21-1.05,0.35
		c-0.3,0.14-0.54,0.33-0.7,0.56c-0.16,0.23-0.25,0.49-0.25,0.77c0,0.19,0.06,0.4,0.17,0.63c0.12,0.23,0.34,0.46,0.67,0.67
		c0.33,0.21,0.77,0.41,1.33,0.59c1.54,0.37,3,0.7,4.38,0.98c1.38,0.28,2.76,0.56,4.17,0.84c1.54,0.28,3.06,0.76,4.55,1.43
		c1.49,0.68,2.74,1.69,3.75,3.05c1,1.35,1.5,3.24,1.5,5.67c0,2.38-0.49,4.38-1.47,5.98s-2.28,2.88-3.88,3.81
		c-1.61,0.93-3.37,1.61-5.29,2.03C691.06,69.48,689.17,69.69,687.3,69.69z"/>
	<path d="M727.27,69.13V19.57h12.67v37.87h23.73v11.69H727.27z"/>
	<path d="M768.43,69.13V19.57h12.67v37.87h23.73v11.69H768.43z"/>
	<path d="M831.5,69.69c-5.13,0-9.54-1.02-13.23-3.04c-3.69-2.03-6.51-4.92-8.47-8.68c-1.96-3.76-2.94-8.2-2.94-13.33
		c0-5.27,1.01-9.83,3.04-13.69s4.88-6.81,8.54-8.89c3.66-2.08,7.95-3.11,12.84-3.11c3.87,0,7.41,0.7,10.61,2.1
		c3.2,1.4,5.8,3.5,7.8,6.3c2.01,2.8,3.2,6.35,3.57,10.64H841.3c-0.56-2.24-1.61-3.98-3.15-5.22c-1.54-1.24-3.69-1.85-6.44-1.85
		c-2.94,0-5.27,0.65-7,1.96c-1.73,1.31-2.95,2.96-3.67,4.97c-0.72,2.01-1.08,4.08-1.08,6.23c0,2.15,0.38,4.27,1.16,6.37
		c0.77,2.1,2.03,3.84,3.78,5.21c1.75,1.38,4.09,2.06,7.03,2.06c1.77,0,3.31-0.27,4.62-0.8c1.31-0.54,2.39-1.33,3.25-2.38
		c0.86-1.05,1.46-2.32,1.79-3.81h12.25c-0.28,4.2-1.49,7.71-3.64,10.54c-2.15,2.82-4.87,4.94-8.16,6.33S835.24,69.69,831.5,69.69z"
		/>
	<path d="M863.14,70.32c-1.96,0-3.65-0.61-5.08-1.82c-1.42-1.21-2.13-3.01-2.13-5.39c0-2.43,0.74-4.31,2.21-5.63
		c1.47-1.33,3.16-2,5.08-2c1.91,0,3.57,0.65,4.97,1.96c1.4,1.31,2.1,3.17,2.1,5.6c0,2.43-0.7,4.25-2.1,5.46
		S865.1,70.32,863.14,70.32z"/>
</g>
</svg>
