<svg id="Capa_1" data-name="Capa 1" xmlns="http://www.w3.org/2000/svg" viewBox="0 0 1003.55 843.74"><defs><style>.cls-1{fill:#9ad0f2;}</style></defs><path class="cls-1" d="M295.92,841.89C218.16,852.72,189,812.64,190.08,807.36c3.41-17.17,150.07,9.72,265.68-25.92,111-34.23,203.19-75.17,192.08-133.92-7.56-40-30.08-54-146.06-99.36C391.16,504.9,187.92,289,261.36,247.92,321.63,214.24,380.2,380.77,494.64,425c127.74,49.42,308.52,1.35,414.72-123.12,103-120.78,95.69-266.39,92.88-301.92h-229c27.91,41.86,58.32,146.4,43.2,189.6C777.87,299.9,664.11,360.51,563.76,332.16c-77.84-22-119.06-184-221.4-243-87.13-50.27-212.8-20.29-256,37.8-43.63,58.73-46.08,176.4,4.32,235.44C165.38,449.85,503.28,590.28,492.48,654c-10.74,63.37-186,86.09-303.45,65.22C150.1,712.3,122.7,695.9,87.3,708.77,35.78,727.5,12,792,0,841.89"/></svg>